<svg width="27" height="27" viewBox="0 0 27 27" fill="none" xmlns="http://www.w3.org/2000/svg">
<path fill-rule="evenodd" clip-rule="evenodd" d="M10.2559 18.0259C15.2465 18.0259 19.5119 18.8219 19.5119 22.0015C19.5119 25.1811 15.2749 25.9999 10.2559 25.9999C5.26406 25.9999 1 25.211 1 22.03C1 18.8489 5.23565 18.0259 10.2559 18.0259Z" stroke="#7B6F72" stroke-width="1.2" stroke-linecap="round" stroke-linejoin="round"/>
<path fill-rule="evenodd" clip-rule="evenodd" d="M10.2552 13.4879C6.9787 13.4879 4.32178 10.6927 4.32178 7.24394C4.32178 3.79518 6.9787 1 10.2552 1C13.5304 1 16.1873 3.79518 16.1873 7.24394C16.1995 10.6799 13.5615 13.4751 10.2971 13.4879H10.2552Z" stroke="#7B6F72" stroke-width="1.2" stroke-linecap="round" stroke-linejoin="round"/>
<path d="M19.5791 11.867C21.745 11.5466 23.413 9.59013 23.417 7.22213C23.417 4.88831 21.8004 2.95177 19.6806 2.58582" stroke="#7B6F72" stroke-width="1.2" stroke-linecap="round" stroke-linejoin="round"/>
<path d="M22.4365 17.3501C24.5347 17.679 25.9998 18.4536 25.9998 20.0484C25.9998 21.1463 25.3099 21.8583 24.1952 22.304" stroke="#7B6F72" stroke-width="1.2" stroke-linecap="round" stroke-linejoin="round"/>
</svg>
