<svg width="25" height="25" viewBox="0 0 25 25" fill="none" xmlns="http://www.w3.org/2000/svg">
<path d="M10.4167 13.5417H4.16667C3.8904 13.5417 3.62545 13.6514 3.4301 13.8468C3.23475 14.0421 3.125 14.3071 3.125 14.5833V20.8333C3.125 21.1096 3.23475 21.3746 3.4301 21.5699C3.62545 21.7653 3.8904 21.875 4.16667 21.875H10.4167C10.6929 21.875 10.9579 21.7653 11.1532 21.5699C11.3486 21.3746 11.4583 21.1096 11.4583 20.8333V14.5833C11.4583 14.3071 11.3486 14.0421 11.1532 13.8468C10.9579 13.6514 10.6929 13.5417 10.4167 13.5417ZM9.375 19.7917H5.20833V15.625H9.375V19.7917ZM20.8333 3.125H14.5833C14.3071 3.125 14.0421 3.23475 13.8468 3.4301C13.6514 3.62545 13.5417 3.8904 13.5417 4.16667V10.4167C13.5417 10.6929 13.6514 10.9579 13.8468 11.1532C14.0421 11.3486 14.3071 11.4583 14.5833 11.4583H20.8333C21.1096 11.4583 21.3746 11.3486 21.5699 11.1532C21.7653 10.9579 21.875 10.6929 21.875 10.4167V4.16667C21.875 3.8904 21.7653 3.62545 21.5699 3.4301C21.3746 3.23475 21.1096 3.125 20.8333 3.125ZM19.7917 9.375H15.625V5.20833H19.7917V9.375ZM20.8333 16.6667H18.75V14.5833C18.75 14.3071 18.6403 14.0421 18.4449 13.8468C18.2496 13.6514 17.9846 13.5417 17.7083 13.5417C17.4321 13.5417 17.1671 13.6514 16.9718 13.8468C16.7764 14.0421 16.6667 14.3071 16.6667 14.5833V16.6667H14.5833C14.3071 16.6667 14.0421 16.7764 13.8468 16.9718C13.6514 17.1671 13.5417 17.4321 13.5417 17.7083C13.5417 17.9846 13.6514 18.2496 13.8468 18.4449C14.0421 18.6403 14.3071 18.75 14.5833 18.75H16.6667V20.8333C16.6667 21.1096 16.7764 21.3746 16.9718 21.5699C17.1671 21.7653 17.4321 21.875 17.7083 21.875C17.9846 21.875 18.2496 21.7653 18.4449 21.5699C18.6403 21.3746 18.75 21.1096 18.75 20.8333V18.75H20.8333C21.1096 18.75 21.3746 18.6403 21.5699 18.4449C21.7653 18.2496 21.875 17.9846 21.875 17.7083C21.875 17.4321 21.7653 17.1671 21.5699 16.9718C21.3746 16.7764 21.1096 16.6667 20.8333 16.6667ZM10.4167 3.125H4.16667C3.8904 3.125 3.62545 3.23475 3.4301 3.4301C3.23475 3.62545 3.125 3.8904 3.125 4.16667V10.4167C3.125 10.6929 3.23475 10.9579 3.4301 11.1532C3.62545 11.3486 3.8904 11.4583 4.16667 11.4583H10.4167C10.6929 11.4583 10.9579 11.3486 11.1532 11.1532C11.3486 10.9579 11.4583 10.6929 11.4583 10.4167V4.16667C11.4583 3.8904 11.3486 3.62545 11.1532 3.4301C10.9579 3.23475 10.6929 3.125 10.4167 3.125ZM9.375 9.375H5.20833V5.20833H9.375V9.375Z" fill="#7B6F72"/>
</svg>
