<svg width="25" height="25" viewBox="0 0 25 25" fill="none" xmlns="http://www.w3.org/2000/svg">
<path d="M20.8334 8.33328L14.5834 2.85411C14.0105 2.34166 13.2688 2.05835 12.5001 2.05835C11.7314 2.05835 10.9897 2.34166 10.4168 2.85411L4.16677 8.33328C3.8359 8.62919 3.57187 8.99219 3.39226 9.39812C3.21264 9.80404 3.12157 10.2436 3.1251 10.6874V19.7916C3.1251 20.6204 3.45434 21.4153 4.04039 22.0013C4.62644 22.5874 5.4213 22.9166 6.2501 22.9166H18.7501C19.5789 22.9166 20.3738 22.5874 20.9598 22.0013C21.5459 21.4153 21.8751 20.6204 21.8751 19.7916V10.677C21.8771 10.2349 21.7854 9.79738 21.6058 9.39336C21.4262 8.98934 21.163 8.62802 20.8334 8.33328V8.33328ZM14.5834 20.8333H10.4168V15.6249C10.4168 15.3487 10.5265 15.0837 10.7219 14.8884C10.9172 14.693 11.1822 14.5833 11.4584 14.5833H13.5418C13.818 14.5833 14.083 14.693 14.2783 14.8884C14.4737 15.0837 14.5834 15.3487 14.5834 15.6249V20.8333ZM19.7918 19.7916C19.7918 20.0679 19.682 20.3328 19.4867 20.5282C19.2913 20.7235 19.0264 20.8333 18.7501 20.8333H16.6668V15.6249C16.6668 14.7961 16.3375 14.0013 15.7515 13.4152C15.1654 12.8292 14.3706 12.4999 13.5418 12.4999H11.4584C10.6296 12.4999 9.83477 12.8292 9.24872 13.4152C8.66267 14.0013 8.33343 14.7961 8.33343 15.6249V20.8333H6.2501C5.97383 20.8333 5.70888 20.7235 5.51353 20.5282C5.31818 20.3328 5.20843 20.0679 5.20843 19.7916V10.677C5.20862 10.5291 5.2403 10.383 5.30137 10.2483C5.36243 10.1136 5.45149 9.99339 5.5626 9.89578L11.8126 4.42703C12.0027 4.26003 12.2471 4.16793 12.5001 4.16793C12.7531 4.16793 12.9975 4.26003 13.1876 4.42703L19.4376 9.89578C19.5487 9.99339 19.6378 10.1136 19.6988 10.2483C19.7599 10.383 19.7916 10.5291 19.7918 10.677V19.7916Z" fill="#7C6DDB"/>
</svg>
