<svg width="132" height="119" viewBox="0 0 132 119" fill="none" xmlns="http://www.w3.org/2000/svg">
<path d="M113.136 27.4483C130.312 51.2424 126.073 73.99 120.293 85.2811C101.025 119.705 64.415 117.41 51.4778 110.067C37.1643 110.287 27.8972 103.916 25.0528 100.703C11.1797 85.7218 17.2538 67.8395 22.0249 60.771C7.71141 53.3354 -5.77632 31.5793 13.7671 12.0263C29.4019 -3.61612 48.9086 7.16097 56.7077 14.5048C60.0108 11.6407 66.5253 11.6591 69.3696 12.0263L102.951 71.236C95.5513 66.2277 80.3384 61.0816 68.0893 71.236M59.185 82.8026C61.8122 77.6841 64.8469 73.924 68.0893 71.236M68.0893 71.236C64.846 67.3805 54.7258 60.4957 40.1921 63.8004" stroke="#7C6DDB" stroke-width="7" stroke-linecap="round" stroke-linejoin="round"/>
<path d="M97.1709 33.7824L128 16.9834" stroke="#7C6DDB" stroke-width="7" stroke-linecap="round" stroke-linejoin="round"/>
<path d="M94.9688 21.9405L116.99 9.82311" stroke="#7C6DDB" stroke-width="7" stroke-linecap="round" stroke-linejoin="round"/>
<ellipse cx="64.69" cy="41.2181" rx="4.95468" ry="4.9571" fill="#7C6DDB"/>
</svg>
