<svg width="27" height="27" viewBox="0 0 27 27" fill="none" xmlns="http://www.w3.org/2000/svg">
<path d="M5.6875 10.7622C6.42409 10.7222 7.33217 10.7222 8.5 10.7222H18.5C19.6678 10.7222 20.5759 10.7222 21.3125 10.7622M5.6875 10.7622C4.76825 10.8121 4.11608 10.9243 3.55942 11.1764C2.67741 11.5758 1.96031 12.2132 1.51091 12.9972C1 13.8886 1 15.0553 1 17.3889V19.3333C1 21.6669 1 22.8336 1.51091 23.725C1.96031 24.509 2.67741 25.1464 3.55942 25.5458C4.56212 26 5.87475 26 8.5 26H18.5C21.1253 26 22.4378 26 23.4406 25.5458C24.3227 25.1464 25.0397 24.509 25.4891 23.725C26 22.8336 26 21.6669 26 19.3333V17.3889C26 15.0553 26 13.8886 25.4891 12.9972C25.0397 12.2132 24.3227 11.5758 23.4406 11.1764C22.8839 10.9243 22.2317 10.8121 21.3125 10.7622M5.6875 10.7622V7.94444C5.6875 4.10914 9.18528 1 13.5 1C17.8147 1 21.3125 4.10914 21.3125 7.94444V10.7622" stroke="#7B6F72" stroke-linecap="round" stroke-linejoin="round"/>
</svg>
