<svg width="25" height="25" viewBox="0 0 25 25" fill="none" xmlns="http://www.w3.org/2000/svg">
<path d="M22.6144 7.59377C22.5176 7.49613 22.4024 7.41864 22.2755 7.36576C22.1485 7.31287 22.0124 7.28564 21.8749 7.28564C21.7373 7.28564 21.6012 7.31287 21.4743 7.36576C21.3473 7.41864 21.2321 7.49613 21.1353 7.59377L14.5832 14.1563L10.1144 9.6771C10.0176 9.57947 9.90239 9.50197 9.77546 9.44909C9.64852 9.39621 9.51237 9.36898 9.37485 9.36898C9.23734 9.36898 9.10119 9.39621 8.97425 9.44909C8.84732 9.50197 8.73211 9.57947 8.63527 9.6771L2.38527 15.9271C2.28764 16.0239 2.21014 16.1391 2.15726 16.2661C2.10438 16.393 2.07715 16.5292 2.07715 16.6667C2.07715 16.8042 2.10438 16.9403 2.15726 17.0673C2.21014 17.1942 2.28764 17.3094 2.38527 17.4063C2.48211 17.5039 2.59732 17.5814 2.72425 17.6343C2.85119 17.6872 2.98734 17.7144 3.12486 17.7144C3.26237 17.7144 3.39852 17.6872 3.52546 17.6343C3.65239 17.5814 3.7676 17.5039 3.86444 17.4063L9.37485 11.8854L13.8436 16.3646C13.9404 16.4622 14.0557 16.5397 14.1826 16.5926C14.3095 16.6455 14.4457 16.6727 14.5832 16.6727C14.7207 16.6727 14.8569 16.6455 14.9838 16.5926C15.1107 16.5397 15.2259 16.4622 15.3228 16.3646L22.6144 9.07293C22.7121 8.9761 22.7896 8.86089 22.8425 8.73395C22.8953 8.60702 22.9226 8.47086 22.9226 8.33335C22.9226 8.19584 22.8953 8.05969 22.8425 7.93275C22.7896 7.80581 22.7121 7.6906 22.6144 7.59377Z" fill="#7B6F72"/>
</svg>
